<?xml version="1.0" encoding="UTF-8"?>
<svg width="24px" height="24px" viewBox="0 0 24 24" stroke-width="1.5" fill="none" xmlns="http://www.w3.org/2000/svg" color="#000000">
  <path d="M7 10L10 13L15 7" stroke="currentColor" stroke-width="1.5" stroke-linecap="round" stroke-linejoin="round"></path>
  <path d="M10 3H5.8C4.11984 3 3.27976 3 2.63803 3.32698C2.07354 3.6146 1.6146 4.07354 1.32698 4.63803C1 5.27976 1 6.11984 1 7.8V18.2C1 19.8802 1 20.7202 1.32698 21.362C1.6146 21.9265 2.07354 22.3854 2.63803 22.673C3.27976 23 4.11984 23 5.8 23H18.2C19.8802 23 20.7202 23 21.362 22.673C21.9265 22.3854 22.3854 21.9265 22.673 21.362C23 20.7202 23 19.8802 23 18.2V16" stroke="currentColor" stroke-width="1.5" stroke-linecap="round" stroke-linejoin="round"></path>
  <path d="M20.5 4L16.5 8M15 3C15 3 15 3.4 15 4C15 5.5 16.5 7 18 7C18.6 7 19 7 19 7" stroke="currentColor" stroke-width="1.5" stroke-linecap="round" stroke-linejoin="round"></path>
</svg> 