<?xml version="1.0" encoding="UTF-8"?>
<svg width="120px" height="40px" viewBox="0 0 120 40" fill="none" xmlns="http://www.w3.org/2000/svg">
  <rect width="40" height="40" rx="8" fill="#0055aa"/>
  <path d="M10 12H30V32C30 32.5523 29.5523 33 29 33H11C10.4477 33 10 32.5523 10 32V12Z" fill="#ffffff"/>
  <path d="M8 15C8 13.8954 8.89543 13 10 13H30C31.1046 13 32 13.8954 32 15V18H8V15Z" fill="#0055aa"/>
  <circle cx="14" cy="27" r="2" fill="#0055aa"/>
  <circle cx="26" cy="27" r="2" fill="#0055aa"/>
  <path d="M10 18H30V25H10V18Z" fill="#ffffff"/>
  <path d="M45 15H52C55.866 15 59 18.134 59 22C59 25.866 55.866 29 52 29H45V15Z" stroke="#0055aa" stroke-width="3" fill="none"/>
  <path d="M45 20H52" stroke="#0055aa" stroke-width="2"/>
  <path d="M64 15H71C74.866 15 78 18.134 78 22C78 25.866 74.866 29 71 29H64V15Z" stroke="#0055aa" stroke-width="3" fill="none"/>
  <rect x="85" y="15" width="14" height="14" rx="2" stroke="#0055aa" stroke-width="3" fill="none"/>
  <path d="M85 22H99" stroke="#0055aa" stroke-width="2"/>
  <path d="M109 15L117 29" stroke="#0055aa" stroke-width="3"/>
  <path d="M117 15L109 29" stroke="#0055aa" stroke-width="3"/>
</svg> 