<svg xmlns="http://www.w3.org/2000/svg" viewBox="0 0 512 512">
    <path fill="currentColor" d="M32 32c17.7 0 32 14.3 32 32V400c0 8.8 7.2 16 16 16H480c17.7 0 32 14.3 32 32s-14.3 32-32 32H80c-44.2 0-80-35.8-80-80V64c0-17.7 14.3-32 32-32zM160 128c0-17.7 14.3-32 32-32s32 14.3 32 32V352c0 17.7-14.3 32-32 32s-32-14.3-32-32V128zM288 192c0-17.7 14.3-32 32-32s32 14.3 32 32V352c0 17.7-14.3 32-32 32s-32-14.3-32-32V192zM416 256c0-17.7 14.3-32 32-32s32 14.3 32 32V352c0 17.7-14.3 32-32 32s-32-14.3-32-32V256z"/>
</svg> 